# xmcd
#
# Track frame offsets:
#	150
#	19888
#	37936
#	64985
#	81659
#	111376
#	126904
#	145935
#	172678
#	199465
#	218195
#	233517
#	257760
#	270376
#	287121
#
# Disc length: 4091 seconds
#
# Revision: 0
# Processed by: cddbd v1.5.1PL0 Copyright (c) Steve Scherf et al.
# Submitted via: dBpowerAMP V4.0
#
DISCID=e10ff90f
DTITLE=Ted Jordan - Acoustic Adventure
DYEAR=1900
DGENRE=Blues
TTITLE0=Key to the Highway
TTITLE1=Oklahoma Hills
TTITLE2=That's What I Like About the South
TTITLE3=Workin' at the Carwash Blues
TTITLE4=16 Tons
TTITLE5=Scotch and Soda
TTITLE6=Blues for Dixie
TTITLE7=Smoke That Cigarette
TTITLE8=Blues is Just a Bad Dream
TTITLE9=San Antonio Rose
TTITLE10=Deep River Blues
TTITLE11=She's No Lady
TTITLE12=Cannonball Rag
TTITLE13=Ain't It Confusin'
TTITLE14=California Blues
EXTD=
EXTT0=
EXTT1=
EXTT2=
EXTT3=
EXTT4=
EXTT5=
EXTT6=
EXTT7=
EXTT8=
EXTT9=
EXTT10=
EXTT11=
EXTT12=
EXTT13=
EXTT14=
PLAYORDER=
